<svg xmlns="http://www.w3.org/2000/svg" width="216" height="46" fill="none">
  <path fill="#fff" d="m30.4 2.2-2.2 4a2.7 2.7 0 0 0 0 2.6l2.2 3.9a2.7 2.7 0 0 0 2.4 1.3h4.5a2.7 2.7 0 0 0 2.3-1.3l2.3-4a2.6 2.6 0 0 0 0-2.6l-2.3-3.9A2.7 2.7 0 0 0 37.3 1h-4.5c-.5 0-1 .1-1.4.4-.4.2-.7.5-1 1ZM44.1 10.1l-2.2 4a2.7 2.7 0 0 0 0 2.6l2.2 3.9a2.7 2.7 0 0 0 2.4 1.3H51a2.7 2.7 0 0 0 2.3-1.3l2.3-3.9a2.6 2.6 0 0 0 0-2.7l-2.3-3.8A2.7 2.7 0 0 0 51 8.8h-4.5a2.7 2.7 0 0 0-2.4 1.3ZM16.7 10.1l-2.2 4a2.7 2.7 0 0 0 0 2.6l2.2 3.9a2.7 2.7 0 0 0 2.4 1.3h4.5a2.7 2.7 0 0 0 2.3-1.3l2.3-3.9a2.6 2.6 0 0 0 0-2.7l-2.3-3.8a2.7 2.7 0 0 0-2.3-1.4H19a2.7 2.7 0 0 0-2.4 1.3ZM39.6 44.2l2.3-3.9a2.6 2.6 0 0 0 0-2.6l-2.3-3.9a2.7 2.7 0 0 0-2.3-1.3h-4.5a2.7 2.7 0 0 0-2.4 1.3l-2.2 3.9a2.7 2.7 0 0 0 0 2.6l2.2 4c.3.3.6.7 1 .9.4.2.9.4 1.4.3h4.5a2.7 2.7 0 0 0 2.3-1.3ZM25.9 36.3l2.3-3.9a2.6 2.6 0 0 0 0-2.6l-2.3-4a2.7 2.7 0 0 0-2.3-1.2H19a2.7 2.7 0 0 0-2.4 1.3l-2.2 3.9a2.7 2.7 0 0 0 0 2.6l2.2 4c.3.3.6.7 1 .9.4.2.9.3 1.4.3h4.5c.4 0 .9 0 1.3-.3.4-.2.8-.6 1-1ZM53.3 36.3l2.3-3.9a2.6 2.6 0 0 0 0-2.6l-2.3-4a2.7 2.7 0 0 0-2.3-1.2h-4.5a2.7 2.7 0 0 0-2.4 1.3L42 29.8a2.7 2.7 0 0 0 0 2.6l2.2 4c.3.3.6.7 1 .9.4.2.9.3 1.4.3H51c.5 0 1 0 1.3-.3.4-.2.8-.6 1-1ZM30.4 18l-2.2 3.9a2.7 2.7 0 0 0 0 2.6l2.2 3.9 1 1c.4.2.9.3 1.4.3h4.5c.5 0 1 0 1.3-.3.4-.3.8-.6 1-1l2.3-3.9a2.6 2.6 0 0 0 0-2.6l-2.3-4a2.7 2.7 0 0 0-2.3-1.3h-4.5a2.7 2.7 0 0 0-2.4 1.4ZM57.9 18l-2.3 3.9a2.7 2.7 0 0 0 0 2.6l2.3 3.9c.2.4.6.7 1 1 .4.2.8.3 1.3.3h4.5c.5 0 1 0 1.4-.3l1-1 2.2-3.9a2.6 2.6 0 0 0 0-2.6l-2.2-4a2.7 2.7 0 0 0-2.4-1.3h-4.5A2.7 2.7 0 0 0 58 18ZM3 18 .7 21.9a2.7 2.7 0 0 0 0 2.6L3 28.4c.2.4.6.7 1 1 .4.2.8.3 1.3.3h4.5c.5 0 1 0 1.4-.3l1-1 2.2-3.9a2.6 2.6 0 0 0 0-2.6l-2.2-4a2.7 2.7 0 0 0-2.4-1.3H5.3A2.7 2.7 0 0 0 3 18ZM88.8 15.8h4V17c0 .7-.2 1.5-.5 2.1-.4.6-1 1.1-1.5 1.4-.7.4-1.4.5-2.2.5-.8 0-1.6-.2-2.4-.6-.7-.4-1.2-1-1.6-1.7-.4-.8-.6-1.7-.5-2.6 0-.7 0-1.4.3-2 .2-.6.5-1.2 1-1.6.4-.4.9-.8 1.4-1a5 5 0 0 1 3.3 0c.5 0 .9.3 1.3.6l.8 1c.3.4.4.9.5 1.3h-2l-.4-.6c0-.2-.2-.3-.4-.5l-.6-.3a2.5 2.5 0 0 0-2 .3l-.9 1-.3 1.8c0 .6.1 1.1.3 1.7.2.4.5.8.9 1 .4.3.8.4 1.3.4.4 0 .8 0 1.2-.2a1.8 1.8 0 0 0 1-1.7h-2v-1.5Zm7.5-4.5h-2v9.5h2v-9.5Zm6.7 9.2c-.5.3-1.2.5-1.9.5-.6 0-1.3-.2-1.9-.5-.5-.3-1-.7-1.2-1.3a4.5 4.5 0 0 1 0-3.9c.3-.5.7-1 1.2-1.3a4 4 0 0 1 3.8 0c.6.3 1 .8 1.3 1.3a4.6 4.6 0 0 1 0 4c-.3.5-.7 1-1.3 1.2Zm-.3-3.2c0-.4 0-.8-.2-1.1l-.5-.8c-.3-.2-.5-.3-.9-.3-.3 0-.6.1-.8.3l-.5.8-.2 1c0 .5 0 .8.2 1.2 0 .3.3.6.5.8.2.2.5.3.8.2.3 0 .6 0 .9-.2l.5-.8.2-1.1Zm10-2c.3.6.4 1.3.4 2s-.1 1.3-.4 2a3 3 0 0 1-1 1.2 2.8 2.8 0 0 1-2.5.3 2 2 0 0 1-1-1.1h-.2v1.1h-2v-9.5h2v3.6h.1l.4-.6.7-.5c.3-.2.6-.2 1-.2a2.7 2.7 0 0 1 2.5 1.6Zm-1.6 2c0-.4 0-.8-.2-1.1l-.5-.8a1.5 1.5 0 0 0-1.7 0l-.5.7a3 3 0 0 0-.2 1.2c0 .3 0 .7.2 1 .1.4.3.6.5.8a1.4 1.4 0 0 0 1.7 0l.5-.7.2-1.2Zm9.2-2.4c.2.3.3.7.3 1v5h-2v-1a2 2 0 0 1-.5.5l-.7.4a2.9 2.9 0 0 1-2.1 0 2 2 0 0 1-.9-.8 2.4 2.4 0 0 1 0-2.2c0-.2.3-.5.5-.6l.9-.4 1-.2 1-.1c.2 0 .4 0 .6-.2l.1-.1V16a.9.9 0 0 0-.2-.8l-.8-.2c-.3 0-.6 0-.9.2l-.4.6-1.9-.1.6-1.2 1-.7a4.8 4.8 0 0 1 2.7-.1c.4 0 .7.2 1 .4.3.2.6.5.7.8Zm-1.7 2.6-.3.1-.4.1h-.4l-.4.1-.6.2a1 1 0 0 0-.4.3l-.1.5a.7.7 0 0 0 .3.6l.8.2c.2 0 .5 0 .7-.2.2 0 .4-.2.6-.4l.2-.7v-.8Zm5.5-6.2h-2v9.5h2v-9.5Zm11.6 8.3a2.7 2.7 0 0 0 .2-2.5c-.1-.3-.3-.6-.6-.8-.2-.3-.5-.5-.9-.6l-1.1-.4-.9-.2a4 4 0 0 1-1-.4 1 1 0 0 1-.4-.3l-.1-.5c0-.2 0-.4.2-.5l.5-.4.8-.2c.4 0 .8.1 1.2.4l.3.3.2.5h2c0-.5-.2-1-.5-1.5a3 3 0 0 0-1.3-1c-.6-.3-1.2-.4-1.9-.4-.6 0-1.3.1-1.8.4-.6.2-1 .6-1.3 1-.4.5-.5 1-.5 1.5a2.2 2.2 0 0 0 .7 1.7c.5.5 1.2.8 1.9 1l1 .2c.4 0 .6.2 1 .3l.5.4.2.5c0 .2 0 .5-.2.6-.2.2-.4.4-.6.4l-1 .2c-.2 0-.6 0-.9-.2-.2 0-.5-.2-.6-.4l-.3-.8h-2c0 .6.2 1.2.5 1.7.4.5.8.8 1.4 1 .6.3 1.3.4 2 .4s1.4-.1 2-.4c.5-.2 1-.5 1.3-1Zm5.2-.3h-.3a1 1 0 0 1-.3 0 .5.5 0 0 1-.3-.2v-3.9h1.3v-1.5H140v-1.8h-2v1.8h-1v1.5h1v3.7c0 .4 0 .8.2 1.2.2.3.5.5.9.7l1.3.2.6-.1.4-.1-.3-1.5h-.2Zm1.7.7a2.5 2.5 0 0 1-.1-2.2l.6-.6.9-.4 1-.2 1-.1c.2 0 .4 0 .6-.2l.1-.1V15.6c0-.2-.1-.3-.2-.3-.3-.2-.5-.3-.8-.3-.3 0-.6 0-.9.2l-.4.6-1.9-.1.6-1.2 1-.7a4.8 4.8 0 0 1 2.7-.1c.4 0 .7.2 1 .4a2.2 2.2 0 0 1 1 1.9v4.8h-2v-1a2 2 0 0 1-1.2 1 2.9 2.9 0 0 1-2.1 0 2 2 0 0 1-1-.8Zm1.6-1.2a.7.7 0 0 0 .3.6c.2.2.5.2.8.2.2 0 .5 0 .7-.2.2 0 .4-.2.6-.4l.2-.7v-.8l-.3.1a7 7 0 0 1-.4.1h-.4l-.4.1-.6.2a1 1 0 0 0-.4.3l-.1.5Zm6.6 0c0 .5 0 1 .3 1.3.2.3.5.5.8.6.4.2.9.3 1.3.2h.7l.4-.1-.3-1.5h-.5a1 1 0 0 1-.4 0 .5.5 0 0 1-.2-.2l-.1-.5v-3.4h1.3v-1.5h-1.3v-1.8h-2v1.8h-1v1.5h1v3.7Zm10.6 1.1a3 3 0 0 1-1.2.8 4.2 4.2 0 0 1-3.4-.2 3 3 0 0 1-1.3-1.2 4.6 4.6 0 0 1 0-4c.3-.5.7-1 1.2-1.3.6-.3 1.2-.4 1.9-.4.4 0 .9 0 1.3.2a3 3 0 0 1 1.8 1.8c.2.5.3 1 .3 1.6v.6h-5l.3.9c0 .2.3.4.5.6l.9.2h.6a1.2 1.2 0 0 0 .8-.8l1.8.1c0 .4-.3.8-.5 1.1Zm-4.1-4c-.2.1-.2.4-.2.6h3c0-.2 0-.5-.2-.7l-.5-.5c-.3-.2-.5-.2-.8-.2-.3 0-.5 0-.8.2l-.5.5Zm15.9 1.4c0 .7-.2 1.3-.5 2-.2.5-.7 1-1.2 1.2-.6.3-1.2.5-1.9.5-.6 0-1.3-.1-1.9-.5-.5-.3-1-.7-1.2-1.3a4.6 4.6 0 0 1 0-3.9c.3-.5.7-1 1.2-1.3a4 4 0 0 1 3.8 0c.5.3 1 .8 1.2 1.3.3.6.5 1.3.5 2Zm-2 0-.2-1.1-.5-.8-.9-.3c-.3 0-.6.1-.8.3l-.5.8-.2 1c0 .5 0 .8.2 1.2 0 .3.3.6.5.8.2.2.5.3.8.2.3 0 .6 0 .9-.2l.5-.8.2-1.1Zm3.8 3.5h2v-5.6h1.4v-1.5H177v-.5l.1-.6a.8.8 0 0 1 .6-.2 2.4 2.4 0 0 1 .7.1l.3-1.5a6.8 6.8 0 0 0-1.4-.2l-1.2.3a2 2 0 0 0-.8.8c-.3.3-.4.8-.3 1.2v.6h-1v1.5h1v5.6Zm-83.4 4.8a6 6 0 0 1 0 5.2 4 4 0 0 1-1.6 1.6c-.8.4-1.6.6-2.5.6H84v-9.6h3.4c.9 0 1.7.2 2.5.6a4 4 0 0 1 1.6 1.6Zm-1.4 2.6c0-.6-.1-1.2-.3-1.7a2 2 0 0 0-1-1c-.4-.3-1-.4-1.5-.3h-1.3v6h1.3c.5 0 1 0 1.5-.3a2 2 0 0 0 1-1 4 4 0 0 0 .3-1.7Zm9.8-.4c.2.5.3 1 .3 1.6v.5h-5l.2 1 .6.5c.3.2.6.2.9.2h.6l.5-.3.3-.5 1.8.1c0 .5-.3.9-.6 1.2a3 3 0 0 1-1 .7 4 4 0 0 1-1.6.3c-.7 0-1.4-.1-2-.4a3 3 0 0 1-1.2-1.3 4.6 4.6 0 0 1 0-3.9c.3-.5.7-1 1.2-1.3a3.9 3.9 0 0 1 3.2-.2 3 3 0 0 1 1.8 1.8Zm-1.6.9c0-.3 0-.5-.2-.8l-.5-.5-.8-.2c-.3 0-.6 0-.8.2l-.6.6-.2.7h3Zm13-2.4a2.2 2.2 0 0 0-1.6-.6c-.5 0-1 .1-1.3.4a2 2 0 0 0-.8 1h-.1c-.1-.4-.4-.8-.7-1a2.4 2.4 0 0 0-2.5 0 2 2 0 0 0-.8 1h-.1v-1.3h-2V33h2.1v-4.3c0-.3 0-.5.2-.7 0-.2.2-.4.4-.5l.6-.1h.4l.4.3.2.4V33h2v-4.4c0-.3.1-.7.3-1a1 1 0 0 1 .9-.2c.3 0 .6 0 .8.2l.2.5.1.4V33h2V28a2.4 2.4 0 0 0-.6-1.8Zm8.6 1.2c.3.6.5 1.3.5 2a4 4 0 0 1-.5 1.9 3 3 0 0 1-1.2 1.3c-.6.3-1.2.4-1.9.4-.6 0-1.3-.1-1.9-.4-.5-.3-1-.8-1.2-1.3-.3-.6-.5-1.3-.4-2 0-.6 0-1.3.4-2 .3-.5.7-1 1.2-1.2a4 4 0 0 1 3.8 0c.5.3 1 .7 1.2 1.3Zm-1.7.8-.5-.8-.9-.2c-.3 0-.6 0-.8.2l-.5.8c-.3.7-.3 1.5 0 2.2 0 .3.3.6.5.8.2.2.5.3.8.3l.9-.3.5-.8c.2-.7.2-1.5 0-2.2Zm6-.8c.2-.2.5-.2.8-.2a1.2 1.2 0 0 1 .9.3c.2.2.4.5.4.9h1.9c0-.6-.2-1-.5-1.5-.2-.4-.6-.7-1-1l-1.7-.3c-.7 0-1.4.2-2 .5-.5.3-.9.7-1.2 1.3a4.5 4.5 0 0 0 0 3.8c.3.6.7 1 1.3 1.3.5.4 1.2.5 1.9.5.6 0 1.1-.1 1.6-.3a2.8 2.8 0 0 0 1.6-2.5h-1.9l-.2.7-.5.4-.6.1c-.3 0-.6 0-.8-.2-.3-.2-.5-.5-.6-.8 0-.3-.2-.7-.1-1.1 0-.4 0-.8.2-1.2 0-.3.2-.5.5-.7Zm9-1.8c-.4 0-.7.1-1 .3-.4.3-.6.6-.7 1v-1.2h-2V33h2v-4.1c0-.3 0-.5.2-.8l.5-.5.8-.2a4 4 0 0 1 .9.1v-1.7h-.3l-.4-.1Zm7.4 1.3c.2.4.2.8.2 1.1V33H139v-1a2 2 0 0 1-1.2 1 3 3 0 0 1-2.2 0 2 2 0 0 1-.8-.8c-.2-.4-.3-.7-.3-1.1 0-.4 0-.8.2-1.1.1-.3.3-.5.6-.7l.9-.4 1-.1a21.6 21.6 0 0 0 1.6-.3v-.2l.1-.2a.9.9 0 0 0-.3-.7c-.2-.2-.5-.3-.8-.2-.3 0-.6 0-.8.2a1 1 0 0 0-.4.6l-1.9-.2c.1-.4.3-.8.6-1.1.3-.3.6-.6 1-.7a4.8 4.8 0 0 1 2.7-.1c.4 0 .7.2 1 .4l.7.7Zm-1.8 2.7h-.2l-.4.2h-.8l-.6.2a1 1 0 0 0-.4.3l-.2.5.1.4.2.2c.3.2.5.3.8.2l.8-.1.5-.5c.2-.2.2-.4.2-.7v-.7Zm6-2.2c.3-.2.6-.2.9-.2a1.2 1.2 0 0 1 .9.3c.2.2.4.5.4.9h1.9c0-.6-.2-1-.5-1.5-.2-.4-.6-.7-1-1l-1.7-.3c-.7 0-1.4.1-2 .5-.5.3-.9.7-1.2 1.3-.3.6-.4 1.2-.4 2 0 .6.1 1.2.4 1.8.3.6.7 1 1.3 1.3.5.4 1.2.5 1.9.5.5 0 1.1-.1 1.6-.4a2.8 2.8 0 0 0 1.6-2.4H147a1.4 1.4 0 0 1-.7 1c-.2.2-.4.2-.6.2-.3 0-.6 0-.8-.2-.3-.2-.5-.5-.6-.8l-.2-1.1.2-1.2c.1-.3.3-.5.6-.7Zm8.5 3.6h-.1l-1.5-5.3h-2.1l2.6 7.4-.1.3c0 .2-.2.3-.4.5h-1.1l-.4 1.5a3.6 3.6 0 0 0 1.2.2c.4 0 .9 0 1.3-.2l.9-.7.5-1 2.8-8H155l-1.5 5.3ZM161 33h2v-9.6h-2V33Zm9.2-7c-.4-.2-.8-.3-1.3-.3s-1 .1-1.4.4a2 2 0 0 0-.8 1v-1.3h-2V33h2v-4.2c0-.3 0-.5.2-.8l.5-.5.7-.2.5.1c.2 0 .3.2.4.3.3.3.4.7.4 1V33h2v-4.5c0-.5-.1-1-.3-1.4-.2-.4-.5-.8-.9-1Zm4.5-2.8a1.2 1.2 0 0 0-1.5 0 1 1 0 0 0-.2 1.1l.2.3c.2.2.5.3.8.3.2 0 .5-.1.7-.3l.3-.3a1 1 0 0 0 0-.8l-.3-.3Zm-1.7 9.8h2v-7.2h-2V33Zm7-1.6h-.3a1 1 0 0 1-.3 0 .5.5 0 0 1-.3-.2v-3.9h1.3v-1.5h-1.4v-1.7h-2v1.7h-1v1.5h1V31c0 .5.1.9.3 1.2.2.3.5.6.9.7l1.2.2.7-.1.4-.1-.3-1.5h-.2Zm3.5-8.2a1.2 1.2 0 0 0-1.5 0l-.3.3a1 1 0 0 0 0 .8l.3.3c.2.2.4.3.7.3a1.1 1.1 0 0 0 1-.6 1 1 0 0 0 0-.8l-.2-.3Zm-1.8 9.8h2v-7.2h-2V33Zm9.5-6 .3 1.1V33h-2v-1a2 2 0 0 1-1.2 1 3 3 0 0 1-2.2 0 2 2 0 0 1-.8-.8 2.4 2.4 0 0 1-.1-2.2c.1-.3.4-.5.6-.7l.9-.4 1-.1a21.6 21.6 0 0 0 1.6-.3l.1-.2V27.7l-.2-.3c-.3-.2-.5-.3-.8-.2-.3 0-.6 0-.9.2-.2.1-.3.3-.4.6l-1.9-.2A2.5 2.5 0 0 1 187 26a4.8 4.8 0 0 1 2.7-.1c.3 0 .6.2 1 .4l.6.7Zm-1.8 2.7h-.2a3 3 0 0 1-.4.2h-.8l-.6.2a1 1 0 0 0-.4.3l-.2.5a.7.7 0 0 0 .3.6c.3.2.6.3.8.2l.8-.1.5-.5c.2-.2.2-.4.2-.7v-.7Zm7 1.7h-.2a1 1 0 0 1-.4 0 .5.5 0 0 1-.2-.2l-.1-.4v-3.5h1.3v-1.5h-1.3v-1.7h-2v1.7h-1v1.5h1V31c0 .5 0 .9.3 1.2.2.3.5.6.8.7l1.3.2.7-.1.4-.1-.3-1.5h-.3Zm3.5-8.2a1.2 1.2 0 0 0-1.5 0 1 1 0 0 0-.3.7v.4l.3.3c.2.2.5.3.8.3a1.1 1.1 0 0 0 1-.6 1 1 0 0 0 0-.8l-.3-.3Zm-1.7 9.8h2v-7.2h-2V33Zm6.7-2h-.1l-1.5-5.2h-2.1l2.5 7.2h2.3l2.5-7.2h-2.1l-1.5 5.1Zm11-1.1h-5l.3 1a1.5 1.5 0 0 0 1.4.7h.6l.5-.3.3-.5 1.8.1c0 .4-.3.8-.5 1.2a3 3 0 0 1-1.2.7l-1.5.3c-.7 0-1.4-.1-2-.4a3 3 0 0 1-1.2-1.3 4.7 4.7 0 0 1 0-4c.3-.5.7-1 1.2-1.2a3.9 3.9 0 0 1 3.2-.2c.4 0 .8.3 1.1.6.3.3.6.7.7 1.2.2.5.3 1 .3 1.6v.5Zm-2-1.2-.1-.8-.5-.5-.8-.2c-.3 0-.6 0-.8.2-.2.1-.4.3-.5.6-.2.2-.2.4-.2.7h3Z" />
  </svg>
