<svg xmlns="http://www.w3.org/2000/svg" width="46" height="46" fill="none">
  <path fill="#fff" d="M45.3.5H.5v45h44.8V.5Z" />
  <path fill="#2E6492" d="M1 1h44v44H1V1ZM0 46h46V0H0v46Z" />
  <path fill="#FBF5E7" d="M41 5.1H5.3v35.7H41V5.1Z" />
  <path fill="#2E6492" d="M34 20.5h-4.3l-1.4 4h2.2v.2h-4.1v-.3h1.4l4.7-13h.2l4.9 13h1.6v.3h-5.8v-.3h2l-1.5-4Zm-2.2-6-2 5.7h4l-2-5.6Z" />
  <path fill="#4986BC" d="M22 12h-1.6v-.4h10l.3 3.2h-.3c0-2.1-1.4-2.9-3.4-2.9h-3v6h1.4c2 0 2.2-1.1 2.2-2.4h.3v5h-.3c0-1.4-.2-2.3-2.2-2.3H24v6.2h2.6c3 0 4.5-.3 4.5-3.5h.3v3.8h-11v-.3h1.7V12Z" />
  <path fill="#2E6492" d="M12.2 12h-1.8v-.4h5.9c5 0 6.4 4.1 6.4 6.6 0 4-2.5 6.5-6.4 6.5h-6v-.2h1.9V11.9ZM14 24.3h1.6c1.7 0 4.9-.6 4.9-6.2 0-3.2-1-6.3-5.6-6.3h-1v12.5Z" />
  <path fill="#4986BC" d="M8.3 12H6.5v-.4H12v.3h-1.8v12.5h1.8v.3H6.5v-.3h1.8V12Z" />
  <path fill="#2E6492" d="M44.1 44.1H1.8V1.8H44V44Zm-42-.3h41.7V2.1H2.1v41.7Z" />
  <path fill="#2E6492" d="M8.7 8.2h-.4V10h.4V8.2ZM10.3 8.9 11 10h.4V8.2H11v1l-.6-1H10V10h.3V9ZM12.9 10h.4V8.6h.5v-.4h-1.4v.4h.5V10ZM16.1 9.6h-.8v-.4h.6V9h-.6v-.3h.8v-.4h-1.2V10H16v-.4ZM18.2 10h.5l-.4-.8c.2 0 .3-.3.3-.5 0-.1 0-.3-.2-.4a.7.7 0 0 0-.4-.1h-.7V10h.4v-.7h.2l.3.7ZM18 8.6h.1l.1.1V9h-.5v-.3h.3ZM20.2 8.9l.6 1.1h.4V8.2h-.4v1l-.6-1h-.4V10h.4V9ZM22.7 9.5h.5l.2.5h.4l-.6-1.8h-.4l-.6 1.8h.4l.1-.5Zm.2-.3v-.4l.2.4h-.2ZM25.1 10h.4V8.6h.5v-.4h-1.3v.4h.4V10ZM27.5 8.2h-.4V10h.4V8.2ZM29.5 10c.5 0 .7-.4.7-1 0-.4-.2-.8-.7-.8-.6 0-.8.5-.8 1 0 .4.2.8.8.8Zm.2-1.3.1.4s0 .6-.3.6-.4-.4-.4-.6c0-.1 0-.6.4-.6l.2.2ZM31.8 8.9l.6 1.1h.4V8.2h-.4v1l-.6-1h-.4V10h.4V9ZM34.4 8.2l-.6 1.8h.4l.2-.5h.4l.2.5h.4l-.6-1.8h-.4Zm0 1 .2-.4.1.4h-.2ZM37.6 9.6H37V8.2h-.4V10h1.1v-.4ZM8.7 26.3h-.4v1.8h.4v-1.8ZM11.5 28.1v-1.8H11v1l-.6-1H10v1.8h.3V27l.7 1.1h.4ZM12.8 26.8l.1.4.4.2h.2c.2 0 .2.1.2.2v.1h-.3s-.3 0-.3-.2h-.4v.1c.1.4.4.6.7.6.2 0 .4 0 .5-.2.2 0 .2-.3.2-.4l-.1-.4a.8.8 0 0 0-.4-.2h-.2c-.2 0-.2-.1-.2-.2l.2-.2c.1 0 .3.1.3.3h.4v-.1c-.1-.3-.4-.5-.7-.5-.4 0-.6.2-.6.5ZM16.1 28.1v-1.4h.5v-.4h-1.4v.4h.5V28h.4ZM18.2 26.3h-.4v1.8h.4v-1.8ZM20.7 26.3h-1.3v.4h.4V28h.4v-1.4h.5v-.4ZM22.5 28.2c.2 0 .4-.1.5-.3.2-.1.2-.3.2-.5v-1h-.4v1.3h-.5v-1.3h-.4v1l.1.6.5.2ZM25.2 28.1v-1.4h.5v-.4h-1.3v.4h.4V28h.4ZM28.1 27.8h-.8v-.4h.6V27h-.6v-.3h.8v-.4h-1.2v1.8H28v-.3ZM31.6 27.4h.7V27h-.7v-.3h.8v-.4h-1.2v1.8h.4v-.7ZM34.2 28.2c.5 0 .8-.5.8-1 0-.4-.3-1-.8-1s-.8.6-.8 1c0 .5.3 1 .8 1Zm.3-1.4v.4s0 .6-.3.6-.4-.4-.4-.6c0-.1 0-.5.4-.5l.3.1ZM36.6 27.4h.3l.3.7h.4l-.3-.8c.2 0 .3-.2.3-.4l-.2-.5a.7.7 0 0 0-.5 0h-.7V28h.4v-.7Zm.3-.7h.2V27h-.5v-.3h.3ZM9.6 31l.1-.6c0-.2 0-.5-.2-.6-.2-.3-.4-.3-.6-.3h-.6v1.8H9c.2 0 .4 0 .6-.3ZM8.9 30l.3.1.1.4v.4l-.4.2h-.2v-1.1h.2ZM12 31H11v-.4h.7v-.4h-.7v-.3h.9v-.4h-1.3v1.8H12V31ZM14.7 31.3v-1.8h-.4l-.5 1.1-.4-1H13v1.7h.3v-1l.4 1h.3l.3-1v1h.4ZM16.5 29.5c-.5 0-.8.5-.8 1 0 .4.3.8.8.8s.7-.4.7-.9c0-.4-.2-1-.7-1Zm.3.5v.4s0 .6-.3.6-.4-.4-.4-.6c0-.1 0-.6.4-.6l.3.2ZM19.6 30.7l-.3-.1c-.1.4-.3.4-.4.4l-.2-.2-.1-.4c0-.1 0-.5.3-.5.2 0 .3 0 .3.3h.5V30c-.1-.4-.4-.6-.7-.6-.6 0-.8.4-.8.9s.2 1 .7 1c.4 0 .6-.3.7-.7ZM22 30c0-.1 0-.3-.2-.4a.7.7 0 0 0-.5 0h-.7v1.7h.4v-.7h.3l.3.7h.5l-.4-.8c.2 0 .3-.2.3-.4Zm-1-.1h.5V30.2H21V30ZM22.8 31.3h.4l.1-.4h.5l.2.4h.4l-.6-1.8h-.4l-.6 1.8Zm.7-.8v-.4l.2.4h-.2ZM26.6 30.7l-.4-.1c0 .4-.2.4-.3.4-.2 0-.2-.2-.3-.2v-.4c0-.1 0-.5.3-.5.2 0 .3 0 .3.3h.4V30c0-.4-.3-.6-.7-.6-.5 0-.8.4-.8.9s.3 1 .8 1c.4 0 .6-.3.7-.7ZM28.2 30.2l-.4-.7h-.4l.6 1v.8h.4v-.7l.6-1h-.4l-.4.6ZM32.2 29.5h-.4l-.5 1.8h.3l.2-.4h.4l.2.4h.4l-.6-1.8Zm-.3 1 .1-.4.1.4H32ZM34.7 30.6l-.6-1h-.4v1.7h.4v-1.1l.6 1.1h.4v-1.8h-.4v1ZM36.8 29.5h-.6v1.8h.6c.3 0 .5 0 .6-.3.2-.1.2-.4.2-.6 0-.2 0-.5-.2-.6-.2-.3-.4-.3-.6-.3Zm-.2 1.5v-1.1h.2l.3.1.1.4v.4l-.4.2h-.2ZM9.5 33v-.3H8.3v1.8h1.3v-.4h-.9v-.3h.7v-.4h-.7V33h.8ZM12.2 32.7h-.4v1.8h1.1v-.4h-.7v-1.4ZM15.5 33.8h.7v-.4h-.7V33h.9v-.4H15v1.8h1.3v-.4h-.9v-.3ZM19.6 33.8c0 .3-.2.4-.3.4-.2 0-.3-.2-.3-.2v-.4c0-.1 0-.6.3-.6.1 0 .2.1.3.4h.4v-.1c-.1-.4-.4-.6-.7-.6-.5 0-.8.4-.8.9 0 .4.3 1 .8 1 .3 0 .6-.3.7-.7l-.4-.1ZM22 33h.5v1.5h.4v-1.4h.5v-.4h-1.3v.4ZM27 33.6c0-.5-.2-1-.7-1-.6 0-.8.6-.8 1 0 .5.2 1 .8 1 .5 0 .7-.5.7-1Zm-.5-.4.1.4s0 .6-.3.6-.4-.4-.4-.6c0-.1 0-.6.4-.6l.2.2ZM30.3 34.5h.4l-.3-.8c.1 0 .3-.2.3-.4s-.1-.4-.3-.5a.7.7 0 0 0-.4-.1h-.7v1.8h.4v-.7h.3l.3.7Zm-.3-1.4h.2v.2l-.2.2h-.3V33h.3ZM33.3 34h.4l.2.5h.4l-.6-1.8h-.4l-.6 1.8h.4l.2-.5Zm0-.3.2-.4.1.4h-.2ZM36.8 32.7h-.4v1.8h1.2v-.4h-.8v-1.4ZM8.8 35.9l-.6 1.8h.4l.1-.5h.5l.1.5h.4L9.2 36h-.4Zm0 1 .1-.4.2.4h-.3ZM12.3 36.6h-.2c-.2 0-.2-.1-.2-.2l.2-.2c.2 0 .3.1.3.2v.1h.4v-.2c0-.3-.3-.4-.7-.4-.4 0-.6.2-.6.5 0 .2 0 .3.2.4l.3.1.3.1.2.2-.1.1h-.2c-.1 0-.3 0-.4-.2h-.4v.1c.1.4.4.5.8.5l.4-.1c.2-.1.3-.3.3-.4l-.2-.4a.8.8 0 0 0-.4-.2ZM15.6 36.6h-.2c-.2 0-.3-.1-.3-.2l.3-.2.3.2v.1h.4v-.2a.7.7 0 0 0-.7-.4c-.4 0-.7.2-.7.5l.2.4.3.1.3.1c.2 0 .2.1.2.2v.1h-.3c-.1 0-.3 0-.4-.2h-.4v.1c.2.4.4.5.8.5l.5-.1.2-.4c0-.2 0-.3-.2-.4a.8.8 0 0 0-.3-.2ZM18.4 35.9H18v1.8h.4V36ZM21.2 36.6H21c-.2 0-.2-.1-.2-.2l.2-.2c.2 0 .3.1.3.2v.1h.4v-.2c0-.3-.3-.4-.7-.4-.4 0-.6.2-.6.5 0 .2 0 .3.2.4l.3.1.3.1.2.2-.1.1h-.2c-.2 0-.4 0-.4-.2h-.4v.1c.1.4.4.5.8.5l.4-.1c.2-.1.3-.3.3-.5l-.2-.3a.8.8 0 0 0-.4-.2ZM23.5 36.3h.4v1.4h.4v-1.4h.5v-.4h-1.3v.4ZM27 35.9l-.6 1.8h.4l.1-.5h.5l.2.5h.4l-.6-1.8H27Zm0 1 .2-.4v.4h-.1ZM30.8 37l-.7-1.1h-.4v1.8h.4v-1.1l.7 1.1h.3V36h-.3v1ZM34 37c0 .4-.2.4-.3.4l-.2-.2-.1-.4c0-.1 0-.6.3-.6.2 0 .3.1.3.4h.5v-.1c-.2-.4-.4-.6-.7-.6-.6 0-.8.4-.8.9 0 .4.2 1 .7 1 .4 0 .6-.3.7-.7l-.3-.1ZM36.7 37h.7v-.4h-.7v-.3h.9v-.4h-1.3v1.8h1.3v-.4h-.9V37Z" />
</svg>
